<svg width="46" height="41" viewBox="0 0 46 41" fill="none" xmlns="http://www.w3.org/2000/svg">
<path d="M29.7555 17.038H27.918C25.1566 17.038 22.918 14.7994 22.918 12.038V10.5245C22.918 10.235 22.6831 10 22.3935 10H9.60478C9.31527 10 9.08031 10.235 9.08031 10.5245V12.038C9.08031 14.7994 6.84173 17.038 4.08031 17.038H2.2437C1.97097 17.038 1.74104 17.2512 1.7209 17.523L0.00146665 40.3825C-0.00944239 40.5277 0.040907 40.672 0.139088 40.7769C0.23727 40.8843 0.377409 40.9456 0.524262 40.9456H31.4757C31.6226 40.9456 31.7627 40.8843 31.8601 40.7778C31.9591 40.672 32.0094 40.5277 31.9985 40.3817L30.2791 17.523C30.259 17.2512 30.029 17.038 29.7555 17.038ZM22.3935 20.3619C22.6587 20.3619 22.8744 20.5767 22.8744 20.8402C22.8744 21.1046 22.6587 21.3202 22.3935 21.3202C22.1284 21.3202 21.9127 21.1046 21.9127 20.8402C21.9127 20.5767 22.1284 20.3619 22.3935 20.3619ZM10.1293 14.0443C10.1293 12.3905 11.47 11.0498 13.1238 11.0498H18.8745C20.5284 11.0498 21.8691 12.3905 21.8691 14.0443C21.8691 15.6982 20.5284 17.0389 18.8745 17.0389H13.1238C11.47 17.0389 10.1293 15.6982 10.1293 14.0443ZM9.60478 20.3619C9.86996 20.3619 10.0856 20.5767 10.0856 20.8402C10.0856 21.1046 9.86996 21.3202 9.60478 21.3202C9.33961 21.3202 9.12395 21.1046 9.12395 20.8402C9.12395 20.5767 9.33961 20.3619 9.60478 20.3619ZM6.47925 39.8975C3.57006 39.8975 1.27512 37.4234 1.49333 34.5224L2.50033 21.1353C2.62962 19.4164 4.06197 18.0878 5.78568 18.0878H8.30047C8.73116 18.0878 9.08031 18.4369 9.08031 18.8676C9.08031 19.1946 8.86178 19.4733 8.61255 19.685C8.28411 19.9639 8.075 20.3777 8.075 20.8411C8.075 21.6844 8.76143 22.37 9.60478 22.37C10.4481 22.37 11.1346 21.6844 11.1346 20.8411C11.1346 20.3777 10.9255 19.9639 10.597 19.685C10.3478 19.4733 10.1293 19.1946 10.1293 18.8676C10.1293 18.4369 10.4784 18.0878 10.9091 18.0878H21.0892C21.5199 18.0878 21.8691 18.4369 21.8691 18.8676C21.8691 19.1946 21.6505 19.4733 21.4013 19.685C21.0729 19.9639 20.8638 20.3777 20.8638 20.8411C20.8638 21.6844 21.5502 22.37 22.3935 22.37C23.2369 22.37 23.9233 21.6844 23.9233 20.8411C23.9233 20.3777 23.7142 19.9639 23.3858 19.685C23.1365 19.4733 22.918 19.1946 22.918 18.8676C22.918 18.4369 23.2672 18.0878 23.6979 18.0878H26.2131C27.937 18.0878 29.3696 19.4166 29.4989 21.1357L30.5058 34.5225C30.724 37.4235 28.4291 39.8975 25.5199 39.8975H6.47925Z" fill="#FF7A00"/>
<path d="M42.0311 8.75C40.6839 11.0833 37.3161 11.0833 35.9689 8.75C34.6218 6.41667 36.3057 3.5 39 3.5C41.6943 3.5 43.3782 6.41667 42.0311 8.75Z" fill="#FF7A00"/>
</svg>
